<svg xmlns="http://www.w3.org/2000/svg" xmlns:xlink="http://www.w3.org/1999/xlink" width="120" zoomAndPan="magnify" viewBox="0 0 82.5 30.000001" height="40" preserveAspectRatio="xMidYMid meet" version="1.0"><defs><g/></defs><g fill="#ffffff" fill-opacity="1"><g transform="translate(5.817791, 19.596776)"><g><path d="M 2.15625 -12.28125 L 5.25 -12.265625 C 6.875 -12.265625 8.296875 -11.679688 9.515625 -10.515625 C 10.742188 -9.347656 11.359375 -7.914062 11.359375 -6.21875 C 11.359375 -4.519531 10.757812 -3.0625 9.5625 -1.84375 C 8.363281 -0.625 6.910156 -0.015625 5.203125 -0.015625 L 2.140625 -0.015625 C 1.460938 -0.015625 1.039062 -0.15625 0.875 -0.4375 C 0.738281 -0.664062 0.671875 -1.019531 0.671875 -1.5 L 0.671875 -10.8125 C 0.671875 -11.082031 0.675781 -11.273438 0.6875 -11.390625 C 0.707031 -11.515625 0.765625 -11.660156 0.859375 -11.828125 C 1.015625 -12.128906 1.445312 -12.28125 2.15625 -12.28125 Z M 5.25 -2.984375 C 6.050781 -2.984375 6.773438 -3.28125 7.421875 -3.875 C 8.078125 -4.46875 8.40625 -5.21875 8.40625 -6.125 C 8.40625 -7.03125 8.085938 -7.785156 7.453125 -8.390625 C 6.828125 -8.992188 6.085938 -9.296875 5.234375 -9.296875 L 3.625 -9.296875 L 3.625 -2.984375 Z M 5.25 -2.984375 "/></g></g></g><g fill="#ffffff" fill-opacity="1"><g transform="translate(17.594049, 19.596776)"><g><path d="M 6.390625 -7.875 C 6.460938 -8.5 6.90625 -8.8125 7.71875 -8.8125 C 8.144531 -8.8125 8.460938 -8.78125 8.671875 -8.71875 C 8.890625 -8.65625 9.039062 -8.535156 9.125 -8.359375 C 9.207031 -8.191406 9.253906 -8.046875 9.265625 -7.921875 C 9.285156 -7.796875 9.296875 -7.601562 9.296875 -7.34375 L 9.296875 -1.484375 C 9.296875 -1.234375 9.285156 -1.039062 9.265625 -0.90625 C 9.253906 -0.78125 9.210938 -0.632812 9.140625 -0.46875 C 8.984375 -0.175781 8.597656 -0.03125 7.984375 -0.03125 C 7.378906 -0.03125 6.972656 -0.101562 6.765625 -0.25 C 6.554688 -0.40625 6.4375 -0.628906 6.40625 -0.921875 C 6 -0.328125 5.3125 -0.03125 4.34375 -0.03125 C 3.375 -0.03125 2.476562 -0.46875 1.65625 -1.34375 C 0.832031 -2.226562 0.421875 -3.253906 0.421875 -4.421875 C 0.421875 -5.585938 0.832031 -6.609375 1.65625 -7.484375 C 2.488281 -8.359375 3.40625 -8.796875 4.40625 -8.796875 C 4.78125 -8.796875 5.125 -8.726562 5.4375 -8.59375 C 5.75 -8.46875 5.96875 -8.34375 6.09375 -8.21875 C 6.21875 -8.101562 6.316406 -7.988281 6.390625 -7.875 Z M 3.34375 -4.390625 C 3.34375 -4.023438 3.488281 -3.695312 3.78125 -3.40625 C 4.070312 -3.113281 4.421875 -2.96875 4.828125 -2.96875 C 5.242188 -2.96875 5.585938 -3.113281 5.859375 -3.40625 C 6.140625 -3.707031 6.28125 -4.039062 6.28125 -4.40625 C 6.28125 -4.769531 6.144531 -5.109375 5.875 -5.421875 C 5.613281 -5.734375 5.265625 -5.890625 4.828125 -5.890625 C 4.390625 -5.890625 4.03125 -5.734375 3.75 -5.421875 C 3.476562 -5.109375 3.34375 -4.765625 3.34375 -4.390625 Z M 3.34375 -4.390625 "/></g></g></g><g fill="#ffffff" fill-opacity="1"><g transform="translate(27.563721, 19.596776)"><g/></g></g><g fill="#ffffff" fill-opacity="1"><g transform="translate(27.563721, 19.596776)"><g><path d="M 5.578125 -8.8125 C 6.691406 -8.8125 7.617188 -8.382812 8.359375 -7.53125 C 9.097656 -6.6875 9.46875 -5.648438 9.46875 -4.421875 L 9.46875 -1.46875 C 9.46875 -1.21875 9.457031 -1.023438 9.4375 -0.890625 C 9.425781 -0.765625 9.378906 -0.625 9.296875 -0.46875 C 9.140625 -0.164062 8.707031 -0.015625 8 -0.015625 C 7.207031 -0.015625 6.75 -0.222656 6.625 -0.640625 C 6.5625 -0.828125 6.53125 -1.109375 6.53125 -1.484375 L 6.53125 -4.4375 C 6.53125 -4.894531 6.394531 -5.25 6.125 -5.5 C 5.863281 -5.757812 5.515625 -5.890625 5.078125 -5.890625 C 4.640625 -5.890625 4.28125 -5.753906 4 -5.484375 C 3.726562 -5.222656 3.59375 -4.875 3.59375 -4.4375 L 3.59375 -1.46875 C 3.59375 -1.21875 3.582031 -1.023438 3.5625 -0.890625 C 3.550781 -0.765625 3.5 -0.625 3.40625 -0.46875 C 3.269531 -0.164062 2.84375 -0.015625 2.125 -0.015625 C 1.425781 -0.015625 1 -0.164062 0.84375 -0.46875 C 0.757812 -0.632812 0.707031 -0.78125 0.6875 -0.90625 C 0.675781 -1.039062 0.671875 -1.234375 0.671875 -1.484375 L 0.671875 -7.40625 C 0.671875 -7.65625 0.675781 -7.84375 0.6875 -7.96875 C 0.707031 -8.101562 0.765625 -8.25 0.859375 -8.40625 C 1.015625 -8.675781 1.441406 -8.8125 2.140625 -8.8125 C 2.816406 -8.8125 3.234375 -8.6875 3.390625 -8.4375 C 3.503906 -8.25 3.5625 -8.019531 3.5625 -7.75 C 3.601562 -7.820312 3.703125 -7.929688 3.859375 -8.078125 C 4.015625 -8.222656 4.164062 -8.34375 4.3125 -8.4375 C 4.695312 -8.6875 5.117188 -8.8125 5.578125 -8.8125 Z M 5.578125 -8.8125 "/></g></g></g><g fill="#ffffff" fill-opacity="1"><g transform="translate(37.700669, 19.596776)"><g><path d="M 0.671875 -7.34375 C 0.671875 -7.601562 0.675781 -7.796875 0.6875 -7.921875 C 0.707031 -8.046875 0.757812 -8.191406 0.84375 -8.359375 C 1 -8.648438 1.429688 -8.796875 2.140625 -8.796875 C 2.671875 -8.796875 3.050781 -8.703125 3.28125 -8.515625 C 3.46875 -8.359375 3.566406 -8.117188 3.578125 -7.796875 C 3.585938 -7.679688 3.59375 -7.519531 3.59375 -7.3125 L 3.59375 -1.453125 C 3.59375 -1.203125 3.582031 -1.007812 3.5625 -0.875 C 3.550781 -0.75 3.5 -0.601562 3.40625 -0.4375 C 3.269531 -0.144531 2.84375 0 2.125 0 C 1.425781 0 1 -0.148438 0.84375 -0.453125 C 0.757812 -0.617188 0.707031 -0.765625 0.6875 -0.890625 C 0.675781 -1.015625 0.671875 -1.207031 0.671875 -1.46875 Z M 3.421875 -10.4375 C 3.335938 -10.28125 3.1875 -10.164062 2.96875 -10.09375 C 2.757812 -10.03125 2.476562 -10 2.125 -10 C 1.78125 -10 1.5 -10.03125 1.28125 -10.09375 C 1.070312 -10.164062 0.925781 -10.285156 0.84375 -10.453125 C 0.757812 -10.617188 0.707031 -10.765625 0.6875 -10.890625 C 0.675781 -11.023438 0.671875 -11.21875 0.671875 -11.46875 C 0.671875 -11.726562 0.675781 -11.921875 0.6875 -12.046875 C 0.707031 -12.179688 0.757812 -12.328125 0.84375 -12.484375 C 1 -12.785156 1.429688 -12.9375 2.140625 -12.9375 C 2.847656 -12.9375 3.269531 -12.785156 3.40625 -12.484375 C 3.5 -12.316406 3.550781 -12.164062 3.5625 -12.03125 C 3.582031 -11.90625 3.59375 -11.710938 3.59375 -11.453125 C 3.59375 -11.203125 3.582031 -11.007812 3.5625 -10.875 C 3.550781 -10.75 3.503906 -10.601562 3.421875 -10.4375 Z M 3.421875 -10.4375 "/></g></g></g><g fill="#ff5757" fill-opacity="1"><g transform="translate(41.972025, 19.596776)"><g><path d="M 3.265625 -2.765625 C 3.453125 -2.578125 3.546875 -2.1875 3.546875 -1.59375 L 3.546875 -1.515625 C 3.546875 -1.253906 3.535156 -1.054688 3.515625 -0.921875 C 3.503906 -0.796875 3.445312 -0.644531 3.34375 -0.46875 C 3.175781 -0.144531 2.753906 0.015625 2.078125 0.015625 C 1.410156 0.015625 0.96875 -0.0859375 0.75 -0.296875 C 0.53125 -0.515625 0.421875 -0.914062 0.421875 -1.5 L 0.421875 -1.578125 C 0.421875 -1.828125 0.425781 -2.019531 0.4375 -2.15625 C 0.457031 -2.289062 0.515625 -2.441406 0.609375 -2.609375 C 0.773438 -2.941406 1.191406 -3.109375 1.859375 -3.109375 C 2.535156 -3.109375 3.003906 -2.992188 3.265625 -2.765625 Z M 3.265625 -2.765625 "/></g></g></g><g fill="#ff5757" fill-opacity="1"><g transform="translate(45.936472, 19.596776)"><g><path d="M 6.578125 -12.484375 C 6.660156 -12.648438 6.804688 -12.765625 7.015625 -12.828125 C 7.234375 -12.898438 7.519531 -12.9375 7.875 -12.9375 C 8.226562 -12.9375 8.507812 -12.898438 8.71875 -12.828125 C 8.925781 -12.765625 9.070312 -12.648438 9.15625 -12.484375 C 9.238281 -12.316406 9.289062 -12.164062 9.3125 -12.03125 C 9.332031 -11.90625 9.34375 -11.71875 9.34375 -11.46875 L 9.34375 -1.46875 C 9.34375 -1.21875 9.332031 -1.023438 9.3125 -0.890625 C 9.289062 -0.765625 9.238281 -0.625 9.15625 -0.46875 C 8.988281 -0.164062 8.515625 -0.015625 7.734375 -0.015625 C 6.960938 -0.015625 6.53125 -0.289062 6.4375 -0.84375 C 5.96875 -0.300781 5.316406 -0.03125 4.484375 -0.03125 C 3.484375 -0.03125 2.566406 -0.46875 1.734375 -1.34375 C 0.910156 -2.21875 0.5 -3.238281 0.5 -4.40625 C 0.5 -5.570312 0.914062 -6.59375 1.75 -7.46875 C 2.582031 -8.351562 3.492188 -8.796875 4.484375 -8.796875 C 5.304688 -8.796875 5.945312 -8.519531 6.40625 -7.96875 L 6.40625 -11.484375 C 6.40625 -11.734375 6.410156 -11.921875 6.421875 -12.046875 C 6.441406 -12.179688 6.492188 -12.328125 6.578125 -12.484375 Z M 3.859375 -3.390625 C 4.148438 -3.085938 4.503906 -2.9375 4.921875 -2.9375 C 5.335938 -2.9375 5.679688 -3.085938 5.953125 -3.390625 C 6.222656 -3.691406 6.359375 -4.023438 6.359375 -4.390625 C 6.359375 -4.753906 6.226562 -5.09375 5.96875 -5.40625 C 5.707031 -5.71875 5.351562 -5.875 4.90625 -5.875 C 4.457031 -5.875 4.097656 -5.71875 3.828125 -5.40625 C 3.566406 -5.101562 3.4375 -4.765625 3.4375 -4.390625 C 3.4375 -4.023438 3.578125 -3.691406 3.859375 -3.390625 Z M 3.859375 -3.390625 "/></g></g></g><g fill="#ff5757" fill-opacity="1"><g transform="translate(55.939601, 19.596776)"><g><path d="M 9.171875 -5.46875 C 9.171875 -4.78125 9 -4.269531 8.65625 -3.9375 C 8.320312 -3.613281 7.945312 -3.453125 7.53125 -3.453125 L 3.5625 -3.453125 C 3.5625 -3.140625 3.742188 -2.875 4.109375 -2.65625 C 4.484375 -2.445312 4.851562 -2.34375 5.21875 -2.34375 C 5.863281 -2.34375 6.375 -2.410156 6.75 -2.546875 L 6.921875 -2.609375 C 7.191406 -2.734375 7.414062 -2.796875 7.59375 -2.796875 C 7.957031 -2.796875 8.265625 -2.546875 8.515625 -2.046875 C 8.660156 -1.742188 8.734375 -1.484375 8.734375 -1.265625 C 8.734375 -0.273438 7.546875 0.21875 5.171875 0.21875 C 4.347656 0.21875 3.613281 0.078125 2.96875 -0.203125 C 2.332031 -0.492188 1.832031 -0.875 1.46875 -1.34375 C 0.769531 -2.238281 0.421875 -3.25 0.421875 -4.375 C 0.421875 -5.769531 0.875 -6.890625 1.78125 -7.734375 C 2.6875 -8.578125 3.820312 -9 5.1875 -9 C 6.738281 -9 7.875 -8.453125 8.59375 -7.359375 C 8.976562 -6.785156 9.171875 -6.15625 9.171875 -5.46875 Z M 5.640625 -4.96875 C 6.066406 -4.96875 6.28125 -5.144531 6.28125 -5.5 C 6.28125 -5.757812 6.179688 -5.96875 5.984375 -6.125 C 5.785156 -6.28125 5.503906 -6.359375 5.140625 -6.359375 C 4.785156 -6.359375 4.425781 -6.207031 4.0625 -5.90625 C 3.707031 -5.613281 3.53125 -5.300781 3.53125 -4.96875 Z M 5.640625 -4.96875 "/></g></g></g><g fill="#ff5757" fill-opacity="1"><g transform="translate(65.524541, 19.596776)"><g><path d="M 9.5625 -8.625 C 10.132812 -8.269531 10.421875 -7.898438 10.421875 -7.515625 C 10.421875 -7.285156 10.3125 -6.976562 10.09375 -6.59375 L 6.625 -0.65625 C 6.507812 -0.46875 6.328125 -0.296875 6.078125 -0.140625 C 5.835938 0.00390625 5.597656 0.078125 5.359375 0.078125 C 5.117188 0.078125 4.890625 0.0195312 4.671875 -0.09375 C 4.453125 -0.207031 4.300781 -0.328125 4.21875 -0.453125 L 4.0625 -0.640625 L 0.578125 -6.59375 C 0.359375 -6.957031 0.25 -7.257812 0.25 -7.5 C 0.25 -7.894531 0.539062 -8.269531 1.125 -8.625 C 1.539062 -8.863281 1.875 -8.984375 2.125 -8.984375 C 2.375 -8.984375 2.566406 -8.90625 2.703125 -8.75 C 2.835938 -8.601562 2.984375 -8.378906 3.140625 -8.078125 L 5.34375 -3.859375 L 7.53125 -8.078125 C 7.65625 -8.296875 7.75 -8.453125 7.8125 -8.546875 C 7.875 -8.640625 7.96875 -8.734375 8.09375 -8.828125 C 8.226562 -8.921875 8.40625 -8.96875 8.625 -8.96875 C 8.851562 -8.96875 9.164062 -8.851562 9.5625 -8.625 Z M 9.5625 -8.625 "/></g></g></g></svg>