<svg xmlns="http://www.w3.org/2000/svg" xmlns:xlink="http://www.w3.org/1999/xlink" width="500" zoomAndPan="magnify" viewBox="0 0 375 374.999991" height="500" preserveAspectRatio="xMidYMid meet" version="1.0"><defs><g/></defs><g fill="#ffffff" fill-opacity="1"><g transform="translate(132.605181, 197.624987)"><g><path d="M 3.859375 -21.921875 L 9.375 -21.890625 C 12.257812 -21.890625 14.796875 -20.847656 16.984375 -18.765625 C 19.179688 -16.679688 20.28125 -14.125 20.28125 -11.09375 C 20.28125 -8.0625 19.207031 -5.457031 17.0625 -3.28125 C 14.925781 -1.113281 12.332031 -0.03125 9.28125 -0.03125 L 3.828125 -0.03125 C 2.609375 -0.03125 1.847656 -0.28125 1.546875 -0.78125 C 1.304688 -1.195312 1.1875 -1.832031 1.1875 -2.6875 L 1.1875 -19.296875 C 1.1875 -19.765625 1.203125 -20.109375 1.234375 -20.328125 C 1.265625 -20.546875 1.359375 -20.804688 1.515625 -21.109375 C 1.796875 -21.648438 2.578125 -21.921875 3.859375 -21.921875 Z M 9.375 -5.3125 C 10.8125 -5.3125 12.101562 -5.84375 13.25 -6.90625 C 14.40625 -7.976562 14.984375 -9.316406 14.984375 -10.921875 C 14.984375 -12.535156 14.421875 -13.882812 13.296875 -14.96875 C 12.171875 -16.0625 10.851562 -16.609375 9.34375 -16.609375 L 6.484375 -16.609375 L 6.484375 -5.3125 Z M 9.375 -5.3125 "/></g></g></g><g fill="#ffffff" fill-opacity="1"><g transform="translate(153.617906, 197.624987)"><g><path d="M 11.40625 -14.0625 C 11.519531 -15.175781 12.304688 -15.734375 13.765625 -15.734375 C 14.535156 -15.734375 15.109375 -15.671875 15.484375 -15.546875 C 15.867188 -15.429688 16.132812 -15.222656 16.28125 -14.921875 C 16.4375 -14.628906 16.53125 -14.367188 16.5625 -14.140625 C 16.59375 -13.910156 16.609375 -13.566406 16.609375 -13.109375 L 16.609375 -2.65625 C 16.609375 -2.195312 16.59375 -1.851562 16.5625 -1.625 C 16.53125 -1.394531 16.441406 -1.132812 16.296875 -0.84375 C 16.023438 -0.320312 15.34375 -0.0625 14.25 -0.0625 C 13.164062 -0.0625 12.441406 -0.191406 12.078125 -0.453125 C 11.710938 -0.722656 11.5 -1.117188 11.4375 -1.640625 C 10.695312 -0.585938 9.46875 -0.0625 7.75 -0.0625 C 6.03125 -0.0625 4.429688 -0.847656 2.953125 -2.421875 C 1.484375 -3.992188 0.75 -5.816406 0.75 -7.890625 C 0.75 -9.972656 1.488281 -11.796875 2.96875 -13.359375 C 4.457031 -14.921875 6.085938 -15.703125 7.859375 -15.703125 C 8.535156 -15.703125 9.148438 -15.582031 9.703125 -15.34375 C 10.265625 -15.101562 10.65625 -14.878906 10.875 -14.671875 C 11.09375 -14.460938 11.269531 -14.257812 11.40625 -14.0625 Z M 5.96875 -7.859375 C 5.96875 -7.203125 6.226562 -6.609375 6.75 -6.078125 C 7.269531 -5.546875 7.894531 -5.28125 8.625 -5.28125 C 9.363281 -5.28125 9.976562 -5.546875 10.46875 -6.078125 C 10.957031 -6.617188 11.203125 -7.210938 11.203125 -7.859375 C 11.203125 -8.515625 10.96875 -9.117188 10.5 -9.671875 C 10.03125 -10.234375 9.398438 -10.515625 8.609375 -10.515625 C 7.828125 -10.515625 7.191406 -10.234375 6.703125 -9.671875 C 6.210938 -9.117188 5.96875 -8.515625 5.96875 -7.859375 Z M 5.96875 -7.859375 "/></g></g></g><g fill="#ffffff" fill-opacity="1"><g transform="translate(171.407093, 197.624987)"><g><path d="M 9.9375 -15.734375 C 11.925781 -15.734375 13.582031 -14.972656 14.90625 -13.453125 C 16.238281 -11.929688 16.90625 -10.078125 16.90625 -7.890625 L 16.90625 -2.625 C 16.90625 -2.164062 16.890625 -1.820312 16.859375 -1.59375 C 16.828125 -1.363281 16.742188 -1.113281 16.609375 -0.84375 C 16.328125 -0.300781 15.546875 -0.03125 14.265625 -0.03125 C 12.859375 -0.03125 12.046875 -0.398438 11.828125 -1.140625 C 11.703125 -1.472656 11.640625 -1.976562 11.640625 -2.65625 L 11.640625 -7.90625 C 11.640625 -8.726562 11.40625 -9.367188 10.9375 -9.828125 C 10.46875 -10.285156 9.84375 -10.515625 9.0625 -10.515625 C 8.28125 -10.515625 7.644531 -10.273438 7.15625 -9.796875 C 6.664062 -9.316406 6.421875 -8.6875 6.421875 -7.90625 L 6.421875 -2.625 C 6.421875 -2.164062 6.40625 -1.820312 6.375 -1.59375 C 6.34375 -1.363281 6.25 -1.113281 6.09375 -0.84375 C 5.832031 -0.300781 5.066406 -0.03125 3.796875 -0.03125 C 2.535156 -0.03125 1.769531 -0.300781 1.5 -0.84375 C 1.351562 -1.132812 1.265625 -1.394531 1.234375 -1.625 C 1.203125 -1.851562 1.1875 -2.195312 1.1875 -2.65625 L 1.1875 -13.234375 C 1.1875 -13.671875 1.203125 -14.003906 1.234375 -14.234375 C 1.265625 -14.460938 1.359375 -14.710938 1.515625 -14.984375 C 1.796875 -15.484375 2.566406 -15.734375 3.828125 -15.734375 C 5.035156 -15.734375 5.78125 -15.503906 6.0625 -15.046875 C 6.257812 -14.710938 6.359375 -14.304688 6.359375 -13.828125 C 6.441406 -13.960938 6.617188 -14.160156 6.890625 -14.421875 C 7.171875 -14.679688 7.441406 -14.890625 7.703125 -15.046875 C 8.378906 -15.503906 9.125 -15.734375 9.9375 -15.734375 Z M 9.9375 -15.734375 "/></g></g></g><g fill="#ffffff" fill-opacity="1"><g transform="translate(189.494754, 197.624987)"><g><path d="M 1.1875 -13.109375 C 1.1875 -13.566406 1.203125 -13.910156 1.234375 -14.140625 C 1.265625 -14.367188 1.351562 -14.628906 1.5 -14.921875 C 1.769531 -15.441406 2.546875 -15.703125 3.828125 -15.703125 C 4.773438 -15.703125 5.453125 -15.535156 5.859375 -15.203125 C 6.191406 -14.921875 6.367188 -14.492188 6.390625 -13.921875 C 6.410156 -13.710938 6.421875 -13.421875 6.421875 -13.046875 L 6.421875 -2.59375 C 6.421875 -2.132812 6.40625 -1.789062 6.375 -1.5625 C 6.34375 -1.332031 6.25 -1.070312 6.09375 -0.78125 C 5.832031 -0.257812 5.066406 0 3.796875 0 C 2.535156 0 1.769531 -0.269531 1.5 -0.8125 C 1.351562 -1.101562 1.265625 -1.359375 1.234375 -1.578125 C 1.203125 -1.796875 1.1875 -2.144531 1.1875 -2.625 Z M 6.09375 -18.640625 C 5.945312 -18.359375 5.6875 -18.15625 5.3125 -18.03125 C 4.9375 -17.914062 4.429688 -17.859375 3.796875 -17.859375 C 3.171875 -17.859375 2.671875 -17.914062 2.296875 -18.03125 C 1.921875 -18.15625 1.65625 -18.363281 1.5 -18.65625 C 1.351562 -18.957031 1.265625 -19.222656 1.234375 -19.453125 C 1.203125 -19.679688 1.1875 -20.023438 1.1875 -20.484375 C 1.1875 -20.941406 1.203125 -21.285156 1.234375 -21.515625 C 1.265625 -21.742188 1.351562 -22 1.5 -22.28125 C 1.769531 -22.8125 2.546875 -23.078125 3.828125 -23.078125 C 5.078125 -23.078125 5.832031 -22.8125 6.09375 -22.28125 C 6.25 -21.976562 6.34375 -21.710938 6.375 -21.484375 C 6.40625 -21.253906 6.421875 -20.910156 6.421875 -20.453125 C 6.421875 -19.992188 6.40625 -19.648438 6.375 -19.421875 C 6.34375 -19.191406 6.25 -18.929688 6.09375 -18.640625 Z M 6.09375 -18.640625 "/></g></g></g><g fill="#ff3131" fill-opacity="1"><g transform="translate(197.116896, 197.624987)"><g><path d="M 5.828125 -4.921875 C 6.160156 -4.585938 6.328125 -3.894531 6.328125 -2.84375 L 6.328125 -2.71875 C 6.328125 -2.238281 6.3125 -1.882812 6.28125 -1.65625 C 6.25 -1.425781 6.144531 -1.15625 5.96875 -0.84375 C 5.675781 -0.257812 4.925781 0.03125 3.71875 0.03125 C 2.507812 0.03125 1.710938 -0.15625 1.328125 -0.53125 C 0.941406 -0.914062 0.75 -1.632812 0.75 -2.6875 L 0.75 -2.8125 C 0.75 -3.269531 0.765625 -3.613281 0.796875 -3.84375 C 0.828125 -4.082031 0.921875 -4.351562 1.078125 -4.65625 C 1.367188 -5.25 2.117188 -5.546875 3.328125 -5.546875 C 4.535156 -5.546875 5.367188 -5.335938 5.828125 -4.921875 Z M 5.828125 -4.921875 "/></g></g></g><g fill="#ff3131" fill-opacity="1"><g transform="translate(204.190786, 197.624987)"><g><path d="M 11.75 -22.28125 C 11.894531 -22.570312 12.15625 -22.773438 12.53125 -22.890625 C 12.914062 -23.015625 13.421875 -23.078125 14.046875 -23.078125 C 14.671875 -23.078125 15.171875 -23.015625 15.546875 -22.890625 C 15.929688 -22.773438 16.195312 -22.566406 16.34375 -22.265625 C 16.5 -21.972656 16.585938 -21.710938 16.609375 -21.484375 C 16.640625 -21.253906 16.65625 -20.910156 16.65625 -20.453125 L 16.65625 -2.625 C 16.65625 -2.164062 16.640625 -1.820312 16.609375 -1.59375 C 16.585938 -1.363281 16.492188 -1.113281 16.328125 -0.84375 C 16.035156 -0.300781 15.195312 -0.03125 13.8125 -0.03125 C 12.425781 -0.03125 11.65625 -0.519531 11.5 -1.5 C 10.65625 -0.539062 9.488281 -0.0625 8 -0.0625 C 6.207031 -0.0625 4.570312 -0.84375 3.09375 -2.40625 C 1.625 -3.96875 0.890625 -5.785156 0.890625 -7.859375 C 0.890625 -9.941406 1.628906 -11.769531 3.109375 -13.34375 C 4.597656 -14.914062 6.226562 -15.703125 8 -15.703125 C 9.476562 -15.703125 10.625 -15.207031 11.4375 -14.21875 L 11.4375 -20.484375 C 11.4375 -20.941406 11.453125 -21.285156 11.484375 -21.515625 C 11.515625 -21.742188 11.601562 -22 11.75 -22.28125 Z M 6.890625 -6.0625 C 7.410156 -5.519531 8.039062 -5.25 8.78125 -5.25 C 9.519531 -5.25 10.128906 -5.519531 10.609375 -6.0625 C 11.097656 -6.601562 11.34375 -7.195312 11.34375 -7.84375 C 11.34375 -8.488281 11.109375 -9.085938 10.640625 -9.640625 C 10.171875 -10.203125 9.535156 -10.484375 8.734375 -10.484375 C 7.941406 -10.484375 7.304688 -10.207031 6.828125 -9.65625 C 6.359375 -9.113281 6.125 -8.515625 6.125 -7.859375 C 6.125 -7.203125 6.378906 -6.601562 6.890625 -6.0625 Z M 6.890625 -6.0625 "/></g></g></g><g fill="#ff3131" fill-opacity="1"><g transform="translate(222.039666, 197.624987)"><g><path d="M 16.359375 -9.734375 C 16.359375 -8.515625 16.054688 -7.613281 15.453125 -7.03125 C 14.847656 -6.445312 14.175781 -6.15625 13.4375 -6.15625 L 6.359375 -6.15625 C 6.359375 -5.59375 6.6875 -5.125 7.34375 -4.75 C 8 -4.375 8.65625 -4.1875 9.3125 -4.1875 C 10.46875 -4.1875 11.375 -4.300781 12.03125 -4.53125 L 12.359375 -4.65625 C 12.835938 -4.875 13.238281 -4.984375 13.5625 -4.984375 C 14.195312 -4.984375 14.742188 -4.535156 15.203125 -3.640625 C 15.460938 -3.109375 15.59375 -2.648438 15.59375 -2.265625 C 15.59375 -0.492188 13.46875 0.390625 9.21875 0.390625 C 7.75 0.390625 6.441406 0.132812 5.296875 -0.375 C 4.148438 -0.882812 3.257812 -1.554688 2.625 -2.390625 C 1.375 -4.003906 0.75 -5.804688 0.75 -7.796875 C 0.75 -10.304688 1.554688 -12.3125 3.171875 -13.8125 C 4.796875 -15.3125 6.820312 -16.0625 9.25 -16.0625 C 12.019531 -16.0625 14.050781 -15.085938 15.34375 -13.140625 C 16.019531 -12.097656 16.359375 -10.960938 16.359375 -9.734375 Z M 10.0625 -8.875 C 10.820312 -8.875 11.203125 -9.191406 11.203125 -9.828125 C 11.203125 -10.285156 11.023438 -10.648438 10.671875 -10.921875 C 10.328125 -11.203125 9.832031 -11.34375 9.1875 -11.34375 C 8.539062 -11.34375 7.894531 -11.078125 7.25 -10.546875 C 6.613281 -10.023438 6.296875 -9.46875 6.296875 -8.875 Z M 10.0625 -8.875 "/></g></g></g><g fill="#ff3131" fill-opacity="1"><g transform="translate(239.142356, 197.624987)"><g><path d="M 17.046875 -15.375 C 18.085938 -14.757812 18.609375 -14.101562 18.609375 -13.40625 C 18.609375 -13.007812 18.40625 -12.460938 18 -11.765625 L 11.828125 -1.171875 C 11.628906 -0.828125 11.3125 -0.519531 10.875 -0.25 C 10.4375 0.0195312 10 0.15625 9.5625 0.15625 C 9.132812 0.15625 8.726562 0.0507812 8.34375 -0.15625 C 7.957031 -0.375 7.6875 -0.59375 7.53125 -0.8125 L 7.25 -1.140625 L 1.046875 -11.765625 C 0.648438 -12.421875 0.453125 -12.957031 0.453125 -13.375 C 0.453125 -14.09375 0.96875 -14.757812 2 -15.375 C 2.757812 -15.8125 3.359375 -16.03125 3.796875 -16.03125 C 4.234375 -16.03125 4.578125 -15.894531 4.828125 -15.625 C 5.078125 -15.363281 5.335938 -14.960938 5.609375 -14.421875 L 9.53125 -6.890625 L 13.4375 -14.421875 C 13.65625 -14.796875 13.816406 -15.066406 13.921875 -15.234375 C 14.035156 -15.410156 14.210938 -15.582031 14.453125 -15.75 C 14.691406 -15.914062 15.007812 -16 15.40625 -16 C 15.800781 -16 16.347656 -15.789062 17.046875 -15.375 Z M 17.046875 -15.375 "/></g></g></g></svg>